HIERARCHY
ROOT pelvis
{
	OFFSET 0.000000 0.892272 -0.000000
	CHANNELS 6 Xposition Yposition Zposition Xrotation Yrotation Zrotation
	JOINT spine
	{
		OFFSET 0.000000 0.000000 0.000000
		CHANNELS 6 Xposition Yposition Zposition Xrotation Yrotation Zrotation
		JOINT spine.001
		{
			OFFSET 0.000000 0.297709 0.015602
			CHANNELS 3 Xrotation Yrotation Zrotation
			JOINT neck
			{
				OFFSET 0.000000 0.295895 -0.036331
				CHANNELS 6 Xposition Yposition Zposition Xrotation Yrotation Zrotation
				JOINT face
				{
					OFFSET 0.000000 0.216790 -0.003784
					CHANNELS 6 Xposition Yposition Zposition Xrotation Yrotation Zrotation
					End Site
					{
						OFFSET 0.000000 -0.008961 0.032263
					}
				}
			}
			JOINT shoulder.L
			{
				OFFSET 0.000000 0.295895 -0.036331
				CHANNELS 6 Xposition Yposition Zposition Yrotation Xrotation Zrotation
				JOINT upper_arm.L
				{
					OFFSET 0.185652 0.000000 0.000000
					CHANNELS 6 Xposition Yposition Zposition Xrotation Yrotation Zrotation
					JOINT forearm.L
					{
						OFFSET 0.320814 0.001104 -0.000133
						CHANNELS 6 Xposition Yposition Zposition Xrotation Yrotation Zrotation
						End Site
						{
							OFFSET 0.264785 -0.001520 0.004500
						}
					}
				}
			}
			JOINT shoulder.R
			{
				OFFSET 0.000000 0.295895 -0.036331
				CHANNELS 6 Xposition Yposition Zposition Yrotation Xrotation Zrotation
				JOINT upper_arm.R
				{
					OFFSET -0.185652 0.000000 0.000000
					CHANNELS 6 Xposition Yposition Zposition Xrotation Yrotation Zrotation
					JOINT forearm.R
					{
						OFFSET -0.315270 0.001104 -0.000133
						CHANNELS 6 Xposition Yposition Zposition Xrotation Yrotation Zrotation
						End Site
						{
							OFFSET -0.253219 -0.001518 0.004298
						}
					}
				}
			}
		}
	}
	JOINT pelvis.L
	{
		OFFSET 0.000000 0.000000 0.000000
		CHANNELS 6 Xposition Yposition Zposition Yrotation Xrotation Zrotation
		End Site
		{
			OFFSET 0.116047 0.000000 0.000000
		}
	}
	JOINT pelvis.R
	{
		OFFSET 0.000000 0.000000 0.000000
		CHANNELS 6 Xposition Yposition Zposition Yrotation Xrotation Zrotation
		End Site
		{
			OFFSET -0.116047 0.000000 0.000000
		}
	}
	JOINT thigh.L
	{
		OFFSET 0.116047 0.000000 0.000000
		CHANNELS 6 Xposition Yposition Zposition Xrotation Yrotation Zrotation
		JOINT shin.L
		{
			OFFSET 0.022487 -0.429086 0.000000
			CHANNELS 6 Xposition Yposition Zposition Xrotation Yrotation Zrotation
			JOINT foot.L
			{
				OFFSET 0.019697 -0.375848 0.000000
				CHANNELS 6 Xposition Yposition Zposition Xrotation Yrotation Zrotation
				End Site
				{
					OFFSET 0.018018 -0.077146 0.183717
				}
			}
		}
	}
	JOINT thigh.R
	{
		OFFSET -0.116047 0.000000 0.000000
		CHANNELS 6 Xposition Yposition Zposition Xrotation Yrotation Zrotation
		JOINT shin.R
		{
			OFFSET -0.022775 -0.434573 0.000000
			CHANNELS 6 Xposition Yposition Zposition Xrotation Yrotation Zrotation
			JOINT foot.R
			{
				OFFSET -0.020023 -0.382054 0.000000
				CHANNELS 6 Xposition Yposition Zposition Xrotation Yrotation Zrotation
				End Site
				{
					OFFSET -0.019035 -0.081498 0.194081
				}
			}
		}
	}
}
MOTION
Frames: 7
Frame Time: 0.041667
-0.024883 -0.020061 0.034579 -0.000000 -5.164762 -0.000000 -0.000000 -0.000000 0.000000 -5.234076 0.130406 -1.325901 10.000258 -0.560158 0.068772 0.000000 0.295895 -0.036331 24.685291 6.964154 -1.829047 0.000000 0.216789 -0.003784 -3.535150 0.000001 -0.000000 0.000000 0.295895 -0.036331 -0.111663 -0.000887 -0.908604 0.185652 -0.000000 -0.000000 6.159611 7.625967 -78.575207 0.320814 0.001104 -0.000133 -0.003972 -22.711989 0.696987 0.000000 0.295895 -0.036331 -0.118172 -0.000992 -0.961582 -0.185652 -0.000000 -0.000000 3.161566 -3.990382 77.858597 -0.315270 0.001104 -0.000133 -2.404464 26.012352 10.416390 -0.000000 0.000000 0.000000 -0.000067 -0.000000 -0.893191 -0.000000 0.000000 0.000000 0.000000 -0.000000 -0.893221 0.116033 -0.001809 -0.000000 7.010634 0.341598 -0.427858 0.022487 -0.429086 0.000000 1.827882 0.125517 1.855779 0.019697 -0.375848 0.000000 -12.619543 2.285534 2.569189 -0.116033 0.001809 -0.000000 7.168354 -0.220195 2.485651 -0.022775 -0.434573 0.000000 -1.408616 0.074397 -0.046049 -0.020023 -0.382054 0.000000 -10.738411 8.195211 3.315714 
-0.024572 -0.021127 0.033420 -0.000000 -4.347727 -0.000000 -0.000000 -0.000000 -0.000000 -5.199880 0.117118 -1.194487 10.000072 -0.314271 0.038584 -0.000000 0.295895 -0.036331 24.670068 6.396921 -1.830959 -0.000000 0.216790 -0.003784 -3.696657 -0.000001 0.000000 0.000000 0.295895 -0.036331 -0.056162 -0.000221 -0.456685 0.185652 -0.000000 -0.000000 5.522095 6.822019 -78.743619 0.320814 0.001104 -0.000133 0.026918 -25.198176 0.841683 0.000000 0.295896 -0.036331 -0.062623 -0.000276 -0.509667 -0.185652 -0.000000 0.000000 3.659479 -4.606967 77.907665 -0.315270 0.001104 -0.000133 -2.949262 29.794870 11.015907 -0.000000 0.000000 0.000000 0.000028 0.000001 -1.464022 0.000000 0.000000 0.000000 0.000000 -0.000000 -1.464023 0.116009 -0.002965 0.000000 6.817527 0.342993 -0.246440 0.022487 -0.429086 0.000000 1.773232 0.118451 1.642550 0.019697 -0.375848 0.000000 -12.368843 1.513129 2.110297 -0.116009 0.002965 0.000000 7.567263 -0.227348 2.563219 -0.022775 -0.434573 0.000000 -2.062747 0.112876 -0.263532 -0.020023 -0.382054 0.000000 -11.903755 8.088168 3.238347 
-0.024180 -0.021735 0.033538 -0.000000 -3.807505 -0.000000 -0.000000 0.000000 -0.000000 -5.243709 0.106989 -1.086857 10.000006 -0.131391 0.016132 0.000000 0.295896 -0.036331 24.655660 5.967532 -1.860641 0.000000 0.216790 -0.003784 -3.622683 -0.000001 0.000000 0.000000 0.295896 -0.036331 -0.012285 -0.000012 -0.099745 0.185652 0.000000 -0.000000 4.934386 6.074226 -78.998070 0.320814 0.001104 -0.000133 -0.096788 -28.563516 0.299111 0.000000 0.295896 -0.036331 -0.018766 -0.000023 -0.152725 -0.185653 0.000000 -0.000000 4.059112 -5.108882 77.858378 -0.315270 0.001104 -0.000133 -4.121997 35.378454 12.794359 -0.000000 0.000000 0.000000 0.000003 0.000000 -1.932172 0.000000 0.000000 0.000000 0.000000 -0.000000 -1.932173 0.115981 -0.003913 -0.000000 6.799192 0.352934 -0.064040 0.022487 -0.429086 0.000000 1.604506 0.103050 1.348534 0.019697 -0.375848 0.000000 -12.179549 1.015000 1.813083 -0.115981 0.003913 -0.000000 7.921625 -0.235126 2.605182 -0.022775 -0.434573 0.000000 -2.584024 0.145477 -0.443271 -0.020023 -0.382054 0.000000 -12.747613 8.065743 3.211644 
-0.023417 -0.021816 0.035172 -0.000000 -3.685248 -0.000000 -0.000000 -0.000000 -0.000000 -5.368706 0.097782 -0.982323 9.999940 0.118970 -0.014614 -0.000000 0.295895 -0.036331 24.580265 5.672433 -1.921352 -0.000000 0.216789 -0.003784 -3.235047 -0.000000 -0.000000 -0.000000 0.295895 -0.036331 0.011956 -0.000008 0.097836 0.185652 -0.000000 -0.000000 4.122563 5.094316 -78.874560 0.320814 0.001104 -0.000133 -0.722221 -32.808045 -1.892117 -0.000000 0.295895 -0.036331 0.005431 0.000002 0.044859 -0.185652 0.000000 0.000000 4.395583 -5.546178 77.674537 -0.315270 0.001104 -0.000133 -6.372285 42.432045 16.227520 0.000000 -0.000000 0.000000 -0.000009 -0.000000 -2.260991 0.000000 0.000000 0.000000 0.000000 -0.000000 -2.260963 0.115957 -0.004578 -0.000000 7.011342 0.367789 -0.001956 0.022487 -0.429086 0.000000 1.297268 0.080598 1.109796 0.019697 -0.375848 0.000000 -12.064246 0.920863 1.747677 -0.115957 0.004578 0.000000 8.217392 -0.245649 2.581267 -0.022775 -0.434573 0.000000 -2.966043 0.169895 -0.555285 -0.020023 -0.382054 0.000000 -13.153175 8.298331 3.337818 
-0.022160 -0.021398 0.037121 -0.000000 -3.859914 -0.000000 0.000000 -0.000000 -0.000000 -5.475254 0.087294 -0.868786 10.000258 0.487251 -0.059830 -0.000000 0.295896 -0.036331 24.317154 5.457132 -1.981506 0.000000 0.216789 -0.003784 -2.627022 -0.000001 0.000000 0.000000 0.295896 -0.036331 0.013381 -0.000015 0.109546 0.185652 0.000000 -0.000000 2.826781 3.571462 -77.864320 0.320814 0.001104 -0.000133 -2.220328 -37.189595 -6.210796 0.000000 0.295896 -0.036331 0.006932 -0.000004 0.056564 -0.185652 0.000000 -0.000000 4.631015 -5.864334 77.444680 -0.315270 0.001104 -0.000133 -9.946536 49.305182 21.394540 -0.000000 0.000000 -0.000000 0.000004 0.000000 -2.448816 0.000000 0.000000 -0.000000 0.000000 -0.000000 -2.448787 0.115941 -0.004958 -0.000000 7.301857 0.371733 -0.179100 0.022487 -0.429086 0.000000 0.971813 0.060638 1.140431 0.019697 -0.375848 0.000000 -11.976467 1.105444 1.838167 -0.115941 0.004958 -0.000000 8.423549 -0.258105 2.496209 -0.022775 -0.434573 0.000000 -3.240223 0.186310 -0.579970 -0.020023 -0.382054 0.000000 -13.211528 8.773046 3.609120 
-0.020763 -0.020380 0.037845 -0.000000 -4.031339 -0.000000 -0.000000 -0.000000 -0.000000 -5.446273 0.079175 -0.790006 10.000556 0.743181 -0.091263 -0.000000 0.295895 -0.036331 23.772745 5.378398 -2.003851 0.000000 0.216790 -0.003784 -1.976429 0.000001 0.000000 0.000000 0.295896 -0.036331 -0.004422 -0.000000 -0.036127 0.185652 -0.000000 -0.000000 1.168953 1.548283 -76.234870 0.320814 0.001104 -0.000133 -4.445813 -40.948500 -11.665159 0.000000 0.295896 -0.036331 -0.010953 -0.000009 -0.089066 -0.185652 -0.000000 -0.000000 4.472477 -5.676571 77.332495 -0.315270 0.001104 -0.000133 -14.912316 54.695554 28.367603 0.000000 -0.000000 -0.000000 -0.000020 -0.000001 -2.460951 0.000000 0.000000 -0.000000 0.000000 -0.000000 -2.460952 0.115940 -0.004983 0.000000 7.441179 0.357307 -0.509527 0.022487 -0.429086 0.000000 0.779670 0.050682 1.438017 0.019697 -0.375848 0.000000 -11.858034 1.273136 1.915304 -0.115940 0.004983 0.000000 8.497572 -0.269322 2.376011 -0.022775 -0.434573 0.000000 -3.402055 0.193037 -0.493264 -0.020023 -0.382054 0.000000 -13.131041 9.194641 3.851430 
-0.019664 -0.019092 0.037169 -0.000000 -4.022800 -0.000000 -0.000000 -0.000000 -0.000000 -5.285804 0.076826 -0.777525 10.000565 0.723111 -0.088791 0.000000 0.295896 -0.036331 23.002960 5.476622 -1.982587 -0.000000 0.216790 -0.003784 -1.403625 0.000002 0.000000 0.000000 0.295896 -0.036331 -0.030189 -0.000060 -0.245733 0.185652 0.000000 -0.000000 -0.642873 -0.795846 -75.013891 0.320814 0.001104 -0.000133 -6.700140 -43.755104 -16.507746 0.000000 0.295896 -0.036331 -0.036660 -0.000094 -0.298714 -0.185652 -0.000000 0.000000 3.520240 -4.470640 77.436696 -0.315270 0.001104 -0.000133 -20.603648 57.892670 36.422571 -0.000000 0.000000 0.000000 0.000010 0.000000 -2.233631 0.000000 0.000000 0.000000 0.000000 -0.000000 -2.233632 0.115959 -0.004523 -0.000000 7.392515 0.337321 -0.782055 0.022487 -0.429086 0.000000 0.709501 0.048216 1.775278 0.019697 -0.375848 0.000000 -11.697355 1.235891 1.875370 -0.115959 0.004523 -0.000000 8.475488 -0.279058 2.235244 -0.022775 -0.434573 0.000000 -3.484145 0.191777 -0.299273 -0.020023 -0.382054 0.000000 -13.106941 9.309079 3.917123 
